{
    "accessors" : [
        {
            "bufferView" : 0,
            "componentType" : 5123,
            "count" : 5592,
            "max" : [
                1633
            ],
            "min" : [
                0
            ],
            "type" : "SCALAR"
        },
        {
            "bufferView" : 1,
            "componentType" : 5126,
            "count" : 1634,
            "max" : [
                1.098617434501648,
                2.692722797393799,
                5.553591251373291
            ],
            "min" : [
                -1.098617434501648,
                -2.675912857055664,
                -4.17222785949707
            ],
            "type" : "VEC3"
        },
        {
            "bufferView" : 2,
            "componentType" : 5126,
            "count" : 1634,
            "max" : [
                1.0,
                0.999969482421875,
                1.0
            ],
            "min" : [
                -1.0,
                -0.999969482421875,
                -0.999969482421875
            ],
            "type" : "VEC3"
        },
        {
            "bufferView" : 3,
            "componentType" : 5126,
            "count" : 1634,
            "max" : [
                1.0,
                1.0,
                1.0,
                1.0
            ],
            "min" : [
                -1.0,
                -0.9997078776359558,
                -1.0,
                1.0
            ],
            "type" : "VEC4"
        },
        {
            "bufferView" : 4,
            "componentType" : 5126,
            "count" : 1634,
            "max" : [
                0.9995012879371643,
                0.9995012757135555
            ],
            "min" : [
                0.0004987242864444852,
                0.004755735397338867
            ],
            "type" : "VEC2"
        }
    ],
    "asset" : {
        "generator" : "Khronos Blender glTF 2.0 exporter",
        "version" : "2.0"
    },
    "bufferViews" : [
        {
            "buffer" : 0,
            "byteLength" : 11184,
            "byteOffset" : 0,
            "target" : 34963
        },
        {
            "buffer" : 0,
            "byteLength" : 19608,
            "byteOffset" : 11184,
            "target" : 34962
        },
        {
            "buffer" : 0,
            "byteLength" : 19608,
            "byteOffset" : 30792,
            "target" : 34962
        },
        {
            "buffer" : 0,
            "byteLength" : 26144,
            "byteOffset" : 50400,
            "target" : 34962
        },
        {
            "buffer" : 0,
            "byteLength" : 13072,
            "byteOffset" : 76544,
            "target" : 34962
        }
    ],
    "buffers" : [
        {
            "byteLength" : 89616,
            "uri" : "data:application/octet-stream;base64,"
        }
    ],
    "meshes" : [
        {
            "name" : "Cylinder",
            "primitives" : [
                {
                    "attributes" : {
                        "NORMAL" : 2,
                        "POSITION" : 1,
                        "TANGENT" : 3,
                        "TEXCOORD_0" : 4
                    },
                    "indices" : 0
                }
            ]
        }
    ],
    "nodes" : [
        {
            "mesh" : 0,
            "name" : "Capital",
            "scale" : [
                4.157961368560791,
                4.157961368560791,
                4.157961368560791
            ]
        }
    ],
    "scene" : 0,
    "scenes" : [
        {
            "name" : "Scene",
            "nodes" : [
                0
            ]
        }
    ]
}
